<?xml version="1.0" encoding="utf-8"?>
<?xml-stylesheet type="text/xsl" href="rss1.xsl"?>
<rss version="2.0" xmlns:atom="http://www.w3.org/2005/Atom" xmlns:content="http://purl.org/rss/1.0/modules/content/" xmlns:dc="http://purl.org/dc/elements/1.1/" xmlns:media="http://search.yahoo.com/mrss/">
<channel>
 <title>Getty</title>
 <link>http://www.gettyimg.com/</link>
 <atom:link href="http://www.gettyimg.com/" rel="self" type="application/rss+xml" />

 
                <item>
                <title><![CDATA[【HD Live Performances】WEB-RiP - The Kills - Live in Paris (2023) HD 1080p]]></title>
                <link><![CDATA[https://sharemania.us/threads/the-kills-live-in-paris-2023-hd-1080p.231878/]]></link>
                <description><![CDATA[<article>
<blockquote class="messageText SelectQuoteContainer ugc baseHtml">
<div style="text-align: center">The Kills - Live in Paris (2023) HD 1080p<br>
<br>
<img src="https://imageup.ru/img193/4612794/tk.jpg" class="bbCodeImage LbImage" alt="[​IMG]" data-url="https://imageup.ru/img193/4612794/tk.jpg" style=""><br>
<br>
Screenshots:<br>
<img src="https://imageup.ru/img56/4611541/thekillsliveinparis20231080palexa.jpg" class="bbCodeImage LbImage" alt="[​IMG]" data-url="https://imageup.ru/img56/4611541/thekillsliveinparis20231080palexa.jpg" style=""><br>
<br>
Setlist:<br>
01 - Wasterpiece<br>
02 - New York<br>
03 - U.R.A. Fever<br>
04 - Tape Song<br>
05 - Baby Says<br>
06 - Future Starts Slow<br>
07 - Kissy Kissy<br>
08 - Black Balloon<br>
09 - DNA<br>
10 - Love and Tenderness<br>
11 - 103<br>
12 - LA Hex<br>
13 - Doing It to Death<br>
14 - Better Days<br>
15 - No Wow<br>
16 - Sour Cherry<br>
17 - Monkey 23<br>
<br>
Info:<br>
Source: arte Concert<br>
Genre: Indie Rock | Garage Rock<br>
Quality: WEB-DL | 1080p<br>
Format: MKV | 16.5Mbps<br>
Length: 01:14:00 | 8.63Gb<br>
Video: H.264 | 1920x1080 | 16:9 | 60.000fps<br>
Audio: AAC | 192kbps | 48kHz | 2 channels: L R<br>
Language: English<br>
<br>
Capped by me<br>
<br>
Download:<br>
Rapidgator.net, Uploadgig.com, Ddownload.com<br>
<div class="bbCodeBlock bbCodeVfcHH HiddenContent">
<div class="attribution type">Hidden Content:</div>
<blockquote>You must either reply or click 'Like' to see the hidden information contained here.</blockquote>
</div></div>
<div class="messageTextEndMarker">&nbsp;</div>
</blockquote>
</article>]]></description>
                <author><![CDATA[barboss]]></author>
                </item>

                
                <item>
                <title><![CDATA[【HD Live Performances】HDTV - The 57th Annual CMA Awards (+Red Carpet) HDTV MPEG2 720p DD5.1-ilya2129]]></title>
                <link><![CDATA[https://sharemania.us/threads/the-57th-annual-cma-awards-red-carpet-hdtv-mpeg2-720p-dd5-1-ilya2129.231881/]]></link>
                <description><![CDATA[<article>
<blockquote class="messageText SelectQuoteContainer ugc baseHtml">
<div style="text-align: center"><img src="https://i122.fastpic.org/big/2023/1109/26/0ac11bb68dfb05ba63cdacb55928ae26.jpg?r=1" class="bbCodeImage LbImage" alt="[​IMG]" data-url="https://i122.fastpic.org/big/2023/1109/26/0ac11bb68dfb05ba63cdacb55928ae26.jpg?r=1" style=""><br>
<br>
<a href="https://postimg.cc/S2PqvZg2" target="_blank" class="externalLink" rel="nofollow"><img src="https://i.postimg.cc/S2PqvZg2/vlcsnap-2023-11-09-12h24m17s668.png" class="bbCodeImage LbImage" alt="[​IMG]" data-url="https://i.postimg.cc/S2PqvZg2/vlcsnap-2023-11-09-12h24m17s668.png"></a> <a href="https://postimg.cc/bsk8m9kr" target="_blank" class="externalLink" rel="nofollow"><img src="https://i.postimg.cc/bsk8m9kr/vlcsnap-2023-11-09-12h24m19s984.png" class="bbCodeImage LbImage" alt="[​IMG]" data-url="https://i.postimg.cc/bsk8m9kr/vlcsnap-2023-11-09-12h24m19s984.png"></a> <a href="https://postimg.cc/HrmmR892" target="_blank" class="externalLink" rel="nofollow"><img src="https://i.postimg.cc/HrmmR892/vlcsnap-2023-11-09-12h24m21s985.png" class="bbCodeImage LbImage" alt="[​IMG]" data-url="https://i.postimg.cc/HrmmR892/vlcsnap-2023-11-09-12h24m21s985.png"></a> <a href="https://postimg.cc/HJsgsGK8" target="_blank" class="externalLink" rel="nofollow"><img src="https://i.postimg.cc/HJsgsGK8/vlcsnap-2023-11-09-12h24m24s333.png" class="bbCodeImage LbImage" alt="[​IMG]" data-url="https://i.postimg.cc/HJsgsGK8/vlcsnap-2023-11-09-12h24m24s333.png"></a> <a href="https://postimg.cc/67jN8jJj" target="_blank" class="externalLink" rel="nofollow"><img src="https://i.postimg.cc/67jN8jJj/vlcsnap-2023-11-09-12h24m26s321.png" class="bbCodeImage LbImage" alt="[​IMG]" data-url="https://i.postimg.cc/67jN8jJj/vlcsnap-2023-11-09-12h24m26s321.png"></a> <a href="https://postimg.cc/zykNrDd1" target="_blank" class="externalLink" rel="nofollow"><img src="https://i.postimg.cc/zykNrDd1/vlcsnap-2023-11-09-12h24m28s955.png" class="bbCodeImage LbImage" alt="[​IMG]" data-url="https://i.postimg.cc/zykNrDd1/vlcsnap-2023-11-09-12h24m28s955.png"></a> <a href="https://postimg.cc/K3gFSnW9" target="_blank" class="externalLink" rel="nofollow"><img src="https://i.postimg.cc/K3gFSnW9/vlcsnap-2023-11-09-12h24m32s567.png" class="bbCodeImage LbImage" alt="[​IMG]" data-url="https://i.postimg.cc/K3gFSnW9/vlcsnap-2023-11-09-12h24m32s567.png"></a> <a href="https://postimg.cc/QVBjT3Mp" target="_blank" class="externalLink" rel="nofollow"><img src="https://i.postimg.cc/QVBjT3Mp/vlcsnap-2023-11-09-12h24m35s040.png" class="bbCodeImage LbImage" alt="[​IMG]" data-url="https://i.postimg.cc/QVBjT3Mp/vlcsnap-2023-11-09-12h24m35s040.png"></a> <a href="https://postimg.cc/ThZfj4yB" target="_blank" class="externalLink" rel="nofollow"><img src="https://i.postimg.cc/ThZfj4yB/vlcsnap-2023-11-09-12h24m37s594.png" class="bbCodeImage LbImage" alt="[​IMG]" data-url="https://i.postimg.cc/ThZfj4yB/vlcsnap-2023-11-09-12h24m37s594.png"></a> <a href="https://postimg.cc/WFxLnd40" target="_blank" class="externalLink" rel="nofollow"><img src="https://i.postimg.cc/WFxLnd40/vlcsnap-2023-11-09-12h24m40s092.png" class="bbCodeImage LbImage" alt="[​IMG]" data-url="https://i.postimg.cc/WFxLnd40/vlcsnap-2023-11-09-12h24m40s092.png"></a> <a href="https://postimg.cc/sGSF03Bq" target="_blank" class="externalLink" rel="nofollow"><img src="https://i.postimg.cc/sGSF03Bq/vlcsnap-2023-11-09-12h24m42s529.png" class="bbCodeImage LbImage" alt="[​IMG]" data-url="https://i.postimg.cc/sGSF03Bq/vlcsnap-2023-11-09-12h24m42s529.png"></a> <a href="https://postimg.cc/DmbKzPC6" target="_blank" class="externalLink" rel="nofollow"><img src="https://i.postimg.cc/DmbKzPC6/vlcsnap-2023-11-09-12h24m44s650.png" class="bbCodeImage LbImage" alt="[​IMG]" data-url="https://i.postimg.cc/DmbKzPC6/vlcsnap-2023-11-09-12h24m44s650.png"></a> <br>
<br>
Jelly Roll, Wynonna Judd - "Need a Favor"<br>
Luke Bryan - No. 1 Hits Medley ("Huntin', Fishin' and Lovin' Every Day", "One Margarita", "That's My Kind of Night", "Play It Again", "Country Girl (Shake It for Me)")<br>
Ashley McBryde - "Light On in the Kitchen"<br>
Cody Johnson - "The Painter"<br>
Morgan Wallen, Eric Church - "Man Made a Bar"<br>
Luke Combs - "Where the Wild Things Are"<br>
Chris Stapleton - "White Horse"<br>
Jordan Davis - "Next Thing You Know"<br>
Lainey Wilson - "Wildflowers and Wild Horses"<br>
Dan + Shay - "Save Me the Trouble"<br>
Kelsea Ballerini - "Leave Me Again"<br>
The War and Treaty - "That's How Love Is Made"<br>
Kenny Chesney, Mac McAnally, Alan Jackson, Zac Brown Band, Coral Reefer Band - Jimmy Buffett Tribute Performance ("A Pirate Looks at Forty", "Margaritaville")<br>
Old Dominion, Megan Moroney - "Can't Break Up Now"<br>
Carly Pearce, Chris Stapleton - "We Don't Fight Anymore"<br>
HARDY, Morgan Wallen, Post Malone - Joe Diffie Country Classics Medley ("John Deere Green", "Pickup Man")<br>
Tanya Tucker, Little Big Town - "Delta Dawn"<br>
Jelly Roll, K. Michelle - "Love Can Build a Bridge"<br>
​</div><br>
<div class="bbCodeBlock bbCodeCode">
<div class="type">Code:</div>
<pre>General
ID                                       : 1 (0x1)
Complete name                            : D:\The 57th Annual CMA Awards\The 57th Annual CMA Awards HDTV MPEG2 720p DD5.1-ilya2129.ts
Format                                   : MPEG-TS
File size                                : 8.14 GiB
Duration                                 : 2 h 8 min
Overall bit rate mode                    : Variable
Overall bit rate                         : 9 099 kb/s
Frame rate                               : 59.940 FPS
Movie name                               : LOCAL PROGRAMMING
Law rating                               : TV-PG (L)

Video
ID                                       : 301 (0x12D)
Menu ID                                  : 1 (0x1)
Format                                   : MPEG Video
Commercial name                          : HDV 720p
Format version                           : Version 2
Format profile                           : Main@High
Format settings                          : CustomMatrix / BVOP
Format settings, BVOP                    : Yes
Format settings, Matrix                  : Custom
Format settings, GOP                     : Variable
Codec ID                                 : 2
Duration                                 : 2 h 8 min
Bit rate mode                            : Variable
Bit rate                                 : 8 002 kb/s
Maximum bit rate                         : 14.1 Mb/s
Width                                    : 1 280 pixels
Height                                   : 720 pixels
Display aspect ratio                     : 16:9
Active Format Description                : Full frame 16:9 image
Frame rate                               : 59.940 (60000/1001) FPS
Color space                              : YUV
Chroma subsampling                       : 4:2:0
Bit depth                                : 8 bits
Scan type                                : Progressive
Compression mode                         : Lossy
Bits/(Pixel*Frame)                       : 0.145
Time code of first frame                 : 05:23:02;26
Time code source                         : Group of pictures header
GOP, Open/Closed                         : Open
GOP, Open/Closed of first frame          : Closed
Stream size                              : 7.16 GiB (88%)

Audio #1
ID                                       : 302 (0x12E)
Menu ID                                  : 1 (0x1)
Format                                   : AC-3
Format/Info                              : Audio Coding 3
Commercial name                          : Dolby Digital
Codec ID                                 : 129
Duration                                 : 2 h 8 min
Bit rate mode                            : Constant
Bit rate                                 : 448 kb/s
Channel(s)                               : 6 channels
Channel layout                           : L R C LFE Ls Rs
Sampling rate                            : 48.0 kHz
Frame rate                               : 31.250 FPS (1536 SPF)
Compression mode                         : Lossy
Delay relative to video                  : 16 ms
Stream size                              : 410 MiB (5%)
Language                                 : English
Service kind                             : Complete Main

Audio #2
ID                                       : 303 (0x12F)
Menu ID                                  : 1 (0x1)
Format                                   : AC-3
Format/Info                              : Audio Coding 3
Commercial name                          : Dolby Digital
Codec ID                                 : 129
Duration                                 : 2 h 8 min
Bit rate mode                            : Constant
Bit rate                                 : 192 kb/s
Channel(s)                               : 2 channels
Channel layout                           : L R
Sampling rate                            : 48.0 kHz
Frame rate                               : 31.250 FPS (1536 SPF)
Compression mode                         : Lossy
Delay relative to video                  : 16 ms
Stream size                              : 176 MiB (2%)
Language                                 : Spanish
Service kind                             : Visually Impaired

Text #1
ID                                       : 301 (0x12D)-CC1
Menu ID                                  : 1 (0x1)
Format                                   : EIA-608
Muxing mode                              : A/53 / DTVCC Transport
Muxing mode, more info                   : Muxed in Video #1
Duration                                 : 2 h 8 min
Bit rate mode                            : Constant
Stream size                              : 0.00 Byte (0%)
Type of the first event                  : RollUp

Text #2
ID                                       : 301 (0x12D)-1
Menu ID                                  : 1 (0x1)
Format                                   : EIA-708
Muxing mode                              : A/53 / DTVCC Transport
Muxing mode, more info                   : Muxed in Video #1
Duration                                 : 2 h 8 min
Bit rate mode                            : Constant
Stream size                              : 0.00 Byte (0%)


</pre>
</div><div style="text-align: center">
<div class="bbCodeBlock bbCodeVfcHH HiddenContent">
<div class="attribution type">Hidden Content:</div>
<blockquote>You must reply before you can see the hidden data contained here.</blockquote>
</div></div>
<div class="messageTextEndMarker">&nbsp;</div>
</blockquote>
</article>]]></description>
                <author><![CDATA[ilya2129]]></author>
                </item>

                
                <item>
                <title><![CDATA[【HD Live Performances】WEB-RiP - CHVRCHES - Live From The Palace Theatre (2023) HD 1080p]]></title>
                <link><![CDATA[https://sharemania.us/threads/chvrches-live-from-the-palace-theatre-2023-hd-1080p.231876/]]></link>
                <description><![CDATA[<article>
<blockquote class="messageText SelectQuoteContainer ugc baseHtml">
thanks
<div class="messageTextEndMarker">&nbsp;</div>
</blockquote>
</article>]]></description>
                <author><![CDATA[barboss]]></author>
                </item>

                
                <item>
                <title><![CDATA[【HD Live Performances】WEB-RiP - Noel Gallagher’s High Flying Birds - Live in Düsseldorf (2023) HD 1080p]]></title>
                <link><![CDATA[https://sharemania.us/threads/noel-gallagher%E2%80%99s-high-flying-birds-live-in-d%C3%BCsseldorf-2023-hd-1080p.231877/]]></link>
                <description><![CDATA[<article>
<blockquote class="messageText SelectQuoteContainer ugc baseHtml">
<div style="text-align: center">CHVRCHES - Live From The Palace Theatre (2023) HD 1080p<br>
<br>
<img src="https://imageup.ru/img237/4612791/chpt.jpg" class="bbCodeImage LbImage" alt="[​IMG]" data-url="https://imageup.ru/img237/4612791/chpt.jpg" style=""><br>
<br>
Screenshots:<br>
<img src="https://imageup.ru/img35/4612976/chvrches-live-from-the-palace-theatre-2023-1080p_idx.jpg" class="bbCodeImage LbImage" alt="[​IMG]" data-url="https://imageup.ru/img35/4612976/chvrches-live-from-the-palace-theatre-2023-1080p_idx.jpg" style=""><br>
<br>
Setlist:<br>
01 - Get Out<br>
02 - Gun<br>
03 - Bury It<br>
04 - We Sink<br>
05 - Graffiti<br>
06 - Graves<br>
07 - God's Plan<br>
08 - Under the Tide<br>
09 - Miracle<br>
10 - Science/Visions<br>
11 - Really Gone<br>
12 - Deliverance<br>
13 - Forever<br>
14 - Recover<br>
15 - Leave a Trace<br>
16 - Clearest Blue<br>
17 - The Mother We Share<br>
18 - Never Say Die<br>
<br>
Info:<br>
Genre: Synthpop<br>
Quality: WEB-DL | 1080p<br>
Format: MKV | 7284kbps<br>
Length: 01:24:00 | 4.3Gb<br>
Video: H.264 | 1920x1080 | 16:9 | 60.000fps<br>
Audio: AAC | 192kbps | 48kHz | 2 channels: L R<br>
Language: English<br>
<br>
Download:<br>
Rapidgator.net, Uploadgig.com, Ddownload.com<br>
<div class="bbCodeBlock bbCodeVfcHH HiddenContent">
<div class="attribution type">Hidden Content:</div>
<blockquote>You must either reply or click 'Like' to see the hidden information contained here.</blockquote>
</div></div>
<div class="messageTextEndMarker">&nbsp;</div>
</blockquote>
</article>]]></description>
                <author><![CDATA[barboss]]></author>
                </item>

                
                <item>
                <title><![CDATA[【HD Live Performances】HDTV - Billboard Latin Music Awards 2023 (+Red Carpet) HDTV MPEG2 1080i DD2.0-ilya2129]]></title>
                <link><![CDATA[https://sharemania.us/threads/billboard-latin-music-awards-2023-red-carpet-hdtv-mpeg2-1080i-dd2-0-ilya2129.231882/]]></link>
                <description><![CDATA[<article>
<blockquote class="messageText SelectQuoteContainer ugc baseHtml">
<div style="text-align: center">Noel Gallagher’s High Flying Birds - Live in Düsseldorf (2023) HD 1080p<br>
<br>
<img src="https://imageup.ru/img142/4612792/ng.jpg" class="bbCodeImage LbImage" alt="[​IMG]" data-url="https://imageup.ru/img142/4612792/ng.jpg" style=""><br>
<br>
Screenshots:<br>
<img src="https://imageup.ru/img9/4611539/ngfb.jpg" class="bbCodeImage LbImage" alt="[​IMG]" data-url="https://imageup.ru/img9/4611539/ngfb.jpg" style=""><br>
<br>
Setlist:<br>
01 - Pretty Boy<br>
02 - Council Skies<br>
03 - Open the Door, See What You Find<br>
04 - We're Gonna Get There in the End<br>
05 - Easy Now<br>
06 - You Know We Can't Go Back<br>
07 - We're on Our Way Now<br>
08 - In the Heat of the Moment<br>
09 - If I Had a Gun...<br>
10 - AKA... What a Life!<br>
11 - Dead in the Water<br>
12 - Going Nowhere (Oasis cover)<br>
13 - The Importance of Being Idle (Oasis cover)<br>
14 - The Masterplan (Oasis cover)<br>
15 - Half the World Away (Oasis cover)<br>
16 - Little by Little (Oasis cover)<br>
Encore:<br>
17 - Quinn the Eskimo (The Mighty Quinn) (Bob Dylan cover)<br>
18 - Live Forever (Oasis cover)<br>
19 - Don't Look Back in Anger (Oasis cover)<br>
<br>
Info:<br>
Source: WDR<br>
Genre: Rock | Britpop<br>
Quality: WEB-DL | 1080p<br>
Format: MKV | 4893kbps<br>
Length: 01:37:00 | 3.41Gb<br>
Video: H.264 | 1920x1080 | 16:9 | 50.000fps<br>
Audio: AAC | 128kbps | 48kHz | 2 channels: L R<br>
Language: English<br>
<br>
Download:<br>
Rapidgator.net, Uploadgig.com, Ddownload.com<br>
<div class="bbCodeBlock bbCodeVfcHH HiddenContent">
<div class="attribution type">Hidden Content:</div>
<blockquote>You must either reply or click 'Like' to see the hidden information contained here.</blockquote>
</div></div>
<div class="messageTextEndMarker">&nbsp;</div>
</blockquote>
</article>]]></description>
                <author><![CDATA[ilya2129]]></author>
                </item>

                
                <item>
                <title><![CDATA[【HD Live Performances】HDTV - VA - Pop-Kulthits de 60er (2023) HDTV]]></title>
                <link><![CDATA[https://sharemania.us/threads/va-pop-kulthits-de-60er-2023-hdtv.231879/]]></link>
                <description><![CDATA[<article>
<blockquote class="messageText SelectQuoteContainer ugc baseHtml">
<div style="text-align: center"><img src="https://i120.fastpic.org/big/2022/1002/ba/8552f112c4f600cba53286b5a8b945ba.png?r=1" class="bbCodeImage LbImage" alt="[​IMG]" data-url="https://i120.fastpic.org/big/2022/1002/ba/8552f112c4f600cba53286b5a8b945ba.png?r=1" style=""><br>
<br>
<a href="https://postimg.cc/v15F8Y8z" target="_blank" class="externalLink" rel="nofollow"><img src="https://i.postimg.cc/v15F8Y8z/vlcsnap-2023-11-09-12h28m48s883.png" class="bbCodeImage LbImage" alt="[​IMG]" data-url="https://i.postimg.cc/v15F8Y8z/vlcsnap-2023-11-09-12h28m48s883.png"></a> <a href="https://postimg.cc/sB460vDt" target="_blank" class="externalLink" rel="nofollow"><img src="https://i.postimg.cc/sB460vDt/vlcsnap-2023-11-09-12h28m50s618.png" class="bbCodeImage LbImage" alt="[​IMG]" data-url="https://i.postimg.cc/sB460vDt/vlcsnap-2023-11-09-12h28m50s618.png"></a> <a href="https://postimg.cc/7b6smPvW" target="_blank" class="externalLink" rel="nofollow"><img src="https://i.postimg.cc/7b6smPvW/vlcsnap-2023-11-09-12h28m52s446.png" class="bbCodeImage LbImage" alt="[​IMG]" data-url="https://i.postimg.cc/7b6smPvW/vlcsnap-2023-11-09-12h28m52s446.png"></a> <a href="https://postimg.cc/bs5KQDsg" target="_blank" class="externalLink" rel="nofollow"><img src="https://i.postimg.cc/bs5KQDsg/vlcsnap-2023-11-09-12h28m54s018.png" class="bbCodeImage LbImage" alt="[​IMG]" data-url="https://i.postimg.cc/bs5KQDsg/vlcsnap-2023-11-09-12h28m54s018.png"></a> <a href="https://postimg.cc/yg6QqsDW" target="_blank" class="externalLink" rel="nofollow"><img src="https://i.postimg.cc/yg6QqsDW/vlcsnap-2023-11-09-12h28m56s857.png" class="bbCodeImage LbImage" alt="[​IMG]" data-url="https://i.postimg.cc/yg6QqsDW/vlcsnap-2023-11-09-12h28m56s857.png"></a> <a href="https://postimg.cc/NLzNVhBf" target="_blank" class="externalLink" rel="nofollow"><img src="https://i.postimg.cc/NLzNVhBf/vlcsnap-2023-11-09-12h28m58s509.png" class="bbCodeImage LbImage" alt="[​IMG]" data-url="https://i.postimg.cc/NLzNVhBf/vlcsnap-2023-11-09-12h28m58s509.png"></a> <a href="https://postimg.cc/zLr2jn5C" target="_blank" class="externalLink" rel="nofollow"><img src="https://i.postimg.cc/zLr2jn5C/vlcsnap-2023-11-09-12h29m02s015.png" class="bbCodeImage LbImage" alt="[​IMG]" data-url="https://i.postimg.cc/zLr2jn5C/vlcsnap-2023-11-09-12h29m02s015.png"></a> <a href="https://postimg.cc/dZL516mY" target="_blank" class="externalLink" rel="nofollow"><img src="https://i.postimg.cc/dZL516mY/vlcsnap-2023-11-09-12h29m03s998.png" class="bbCodeImage LbImage" alt="[​IMG]" data-url="https://i.postimg.cc/dZL516mY/vlcsnap-2023-11-09-12h29m03s998.png"></a> <a href="https://postimg.cc/WF99TCZ8" target="_blank" class="externalLink" rel="nofollow"><img src="https://i.postimg.cc/WF99TCZ8/vlcsnap-2023-11-09-12h29m06s595.png" class="bbCodeImage LbImage" alt="[​IMG]" data-url="https://i.postimg.cc/WF99TCZ8/vlcsnap-2023-11-09-12h29m06s595.png"></a> <a href="https://postimg.cc/fJSHQHR7" target="_blank" class="externalLink" rel="nofollow"><img src="https://i.postimg.cc/fJSHQHR7/vlcsnap-2023-11-09-12h29m08s816.png" class="bbCodeImage LbImage" alt="[​IMG]" data-url="https://i.postimg.cc/fJSHQHR7/vlcsnap-2023-11-09-12h29m08s816.png"></a> <a href="https://postimg.cc/bZXmyQZ7" target="_blank" class="externalLink" rel="nofollow"><img src="https://i.postimg.cc/bZXmyQZ7/vlcsnap-2023-11-09-12h29m10s689.png" class="bbCodeImage LbImage" alt="[​IMG]" data-url="https://i.postimg.cc/bZXmyQZ7/vlcsnap-2023-11-09-12h29m10s689.png"></a> <a href="https://postimg.cc/5Xwn66v6" target="_blank" class="externalLink" rel="nofollow"><img src="https://i.postimg.cc/5Xwn66v6/vlcsnap-2023-11-09-12h29m12s843.png" class="bbCodeImage LbImage" alt="[​IMG]" data-url="https://i.postimg.cc/5Xwn66v6/vlcsnap-2023-11-09-12h29m12s843.png"></a> <a href="https://postimg.cc/bGgg9WmP" target="_blank" class="externalLink" rel="nofollow"><img src="https://i.postimg.cc/bGgg9WmP/vlcsnap-2023-11-09-12h29m15s045.png" class="bbCodeImage LbImage" alt="[​IMG]" data-url="https://i.postimg.cc/bGgg9WmP/vlcsnap-2023-11-09-12h29m15s045.png"></a> <br>
<br>
Justin Quiles, El Alfa - "Fiesta Loca"<br>
Calibre 50 - "Borracho Pero Buen Muchacho"<br>
Tini - " Cupido"<br>
Grupo Frontera - "El Amor De Su Vida"<br>
Myke Towers, Yandel - "Lala", "Borracho Y Loco"<br>
Los Ángeles Azules, Nicki Nicole, Ximena Sariñana, Sofía Reyes - "Otra Noche", "Mis Sentimientos", "Nunca Es Suficiente", "Cómo Te Voy a Olvidar"<br>
Marc Anthony, Pepe Aguilar - "Ojalá Te Duela"<br>
Manuel Turizo, Marshmello - "El Merengue"<br>
Peso Pluma, Nicki Nicole - "Por Las Noches"<br>
Olga Tañon - "Es Mentiroso" (Remix)<br>
Bad Bunny - "Moscow Mule", "Tití Me Preguntó", "Neverita", "Me Porto Bonito", "Where She Goes", "Un Preview"<br>
Yng Lvcas, Peso Pluma - "La Bebé (Remix)"<br>
Chiquis, Calibre 50, Los Sebastianes - Tribute to Jenni Rivera ("Basta Ya", "Inolvidable", "Ya Lo Sé")<br>
Sky Rompiendo, Feid, Myke Towers - "El Cielo"<br>
Eladio Carrión - "Mbappé"<br>
Farruko, La Factoría, Eddy Lover - "Perdóname"<br>
​</div><br>
<div class="bbCodeBlock bbCodeCode">
<div class="type">Code:</div>
<pre>General
ID                                       : 1 (0x1)
Complete name                            : D:\Billboard Latin Music Awards 2023\Billboard Latin Music Awards 2023 HDTV MPEG2 1080i DD2.0-ilya2129.ts
Format                                   : MPEG-TS
File size                                : 9.71 GiB
Duration                                 : 2 h 12 min
Overall bit rate mode                    : Variable
Overall bit rate                         : 10.5 Mb/s
Frame rate                               : 29.970 FPS
Law rating                               : N/A

Video
ID                                       : 101 (0x65)
Menu ID                                  : 1 (0x1)
Format                                   : MPEG Video
Format version                           : Version 2
Format profile                           : Main@High
Format settings                          : CustomMatrix / BVOP
Format settings, BVOP                    : Yes
Format settings, Matrix                  : Custom
Format settings, GOP                     : Variable
Format settings, picture structure       : Frame
Codec ID                                 : 2
Duration                                 : 2 h 12 min
Bit rate mode                            : Variable
Bit rate                                 : 9 604 kb/s
Maximum bit rate                         : 80.0 Mb/s
Width                                    : 1 920 pixels
Height                                   : 1 080 pixels
Display aspect ratio                     : 16:9
Active Format Description                : Full frame 16:9 image
Frame rate                               : 29.970 (30000/1001) FPS
Color space                              : YUV
Chroma subsampling                       : 4:2:0
Bit depth                                : 8 bits
Scan type                                : Interlaced
Scan order                               : Top Field First
Compression mode                         : Lossy
Bits/(Pixel*Frame)                       : 0.155
Time code of first frame                 : 02:46:56;17
Time code source                         : Group of pictures header
Stream size                              : 8.87 GiB (91%)

Audio #1
ID                                       : 102 (0x66)
Menu ID                                  : 1 (0x1)
Format                                   : AC-3
Format/Info                              : Audio Coding 3
Commercial name                          : Dolby Digital
Codec ID                                 : 129
Duration                                 : 2 h 12 min
Bit rate mode                            : Constant
Bit rate                                 : 192 kb/s
Channel(s)                               : 2 channels
Channel layout                           : L R
Sampling rate                            : 48.0 kHz
Frame rate                               : 31.250 FPS (1536 SPF)
Compression mode                         : Lossy
Delay relative to video                  : 6 ms
Stream size                              : 182 MiB (2%)
Language                                 : Spanish
Service kind                             : Complete Main

Audio #2
ID                                       : 5123 (0x1403)
Menu ID                                  : 1 (0x1)
Format                                   : AC-3
Format/Info                              : Audio Coding 3
Commercial name                          : Dolby Digital
Codec ID                                 : 129
Duration                                 : 2 h 12 min
Bit rate mode                            : Constant
Bit rate                                 : 192 kb/s
Channel(s)                               : 2 channels
Channel layout                           : L R
Sampling rate                            : 48.0 kHz
Frame rate                               : 31.250 FPS (1536 SPF)
Compression mode                         : Lossy
Delay relative to video                  : 6 ms
Stream size                              : 182 MiB (2%)
Language                                 : English
Service kind                             : Complete Main

Text #1
ID                                       : 101 (0x65)-CC1
Menu ID                                  : 1 (0x1)
Format                                   : EIA-608
Muxing mode                              : A/53 / DTVCC Transport
Muxing mode, more info                   : Muxed in Video #1
Duration                                 : 2 h 12 min
Duration of the visible content          : 2 h 12 min
Start time (commands)                    : 1 s 350 ms
Start time                               : 1 s 416 ms
End time                                 : 2 h 12 min
Bit rate mode                            : Constant
Stream size                              : 0.00 Byte (0%)
Type of the first event                  : RollUp

Text #2
ID                                       : 101 (0x65)-CC3
Menu ID                                  : 1 (0x1)
Format                                   : EIA-608
Muxing mode                              : A/53 / DTVCC Transport
Muxing mode, more info                   : Muxed in Video #1
Duration                                 : 2 h 12 min
Start time (commands)                    : 12 s 528 ms
Start time                               : 12 s 594 ms
Bit rate mode                            : Constant
Stream size                              : 0.00 Byte (0%)
Type of the first event                  : RollUp

Text #3
ID                                       : 101 (0x65)-1
Menu ID                                  : 1 (0x1)
Format                                   : EIA-708
Muxing mode                              : A/53 / DTVCC Transport
Muxing mode, more info                   : Muxed in Video #1
Duration                                 : 2 h 12 min
Bit rate mode                            : Constant
Stream size                              : 0.00 Byte (0%)

Text #4
ID                                       : 101 (0x65)-3
Menu ID                                  : 1 (0x1)
Format                                   : EIA-708
Muxing mode                              : A/53 / DTVCC Transport
Muxing mode, more info                   : Muxed in Video #1
Duration                                 : 2 h 12 min
Bit rate mode                            : Constant
Stream size                              : 0.00 Byte (0%)


</pre>
</div><div style="text-align: center">
<div class="bbCodeBlock bbCodeVfcHH HiddenContent">
<div class="attribution type">Hidden Content:</div>
<blockquote>You must reply before you can see the hidden data contained here.</blockquote>
</div></div>
<div class="messageTextEndMarker">&nbsp;</div>
</blockquote>
</article>]]></description>
                <author><![CDATA[barboss]]></author>
                </item>

                
                <item>
                <title><![CDATA[【Requests】[REQ AUD] - Socha Na Tha - Sandesh Shandilya &amp; Kuley Kuley - Yo Yo Honey Singh]]></title>
                <link><![CDATA[https://sharemania.us/threads/socha-na-tha-sandesh-shandilya-kuley-kuley-yo-yo-honey-singh.231875/]]></link>
                <description><![CDATA[<article>
<blockquote class="messageText SelectQuoteContainer ugc baseHtml">
<div style="text-align: center">VA - Pop-Kulthits de 60er (2023) HDTV<br>
<br>
<img src="https://imageup.ru/img83/4612797/pk60s.jpg" class="bbCodeImage LbImage" alt="[​IMG]" data-url="https://imageup.ru/img83/4612797/pk60s.jpg" style=""><br>
<br>
Screenshots:<br>
<img src="https://imageup.ru/img99/4612979/pop-kulthitsde-60er2023hdtvalexa.jpg" class="bbCodeImage LbImage" alt="[​IMG]" data-url="https://imageup.ru/img99/4612979/pop-kulthitsde-60er2023hdtvalexa.jpg" style=""><br>
<br>
Setlist:<br>
01 - DAVE DEE, DOZY, BEAKY, MICK &amp; TICH - "The Legend of Xanadu"<br>
02 - PETER SARSTEDT - "Where Do You Go To My Lovely"<br>
03 - THE SUPREMES - "You Can't Hurry Love"<br>
04 - ARTHUR CONLEY - "Sweet Soul Music"<br>
05 - GARY PUCKETT &amp; THE UNION GAP - "Young Girl"<br>
06 - DION - "Runaround Sue"<br>
07 - HERMAN'S HERMITS - "Dandy"<br>
08 - THE EQUALS - "Baby, Come Back"<br>
09 - OVERLANDERS - "Michelle"<br>
10 - DUSTY SPRINGFIELD - "I Close My Eyes And Count To Ten"<br>
11 - SIMON &amp; GARFUNKEL - "I Am A Rock"<br>
12 - THE HOLLIES - "He Ain't Heavy, He's My Brother"<br>
13 - OHIO EXPRESS - "Chewy Chewy"<br>
14 - DAVE DEE, DOZY, BEAKY, MICK &amp; TICH - "Don Juan"<br>
15 - BEE GEES - "To Love Somebody"<br>
16 - THE MARBLES - "Only One Woman"<br>
17 - THE BEATLES - "Hello, Goodbye"<br>
18 - THE 5Th DIMENSION - "Aquarius/Let The Sunshine In"<br>
19 - AL MARTINO - "Spanish Eyes"<br>
20 - SHIRLEY BASSEY - "Goldfinger"<br>
21 - AMEN CORNER - "If Paradise is Half as Nice"<br>
22 - THE HOLLIES - "Sorry Suzanne"<br>
23 - PROCOL HARUM - "A Salty Dog"<br>
24 - GRAHAM BONNEY - "Happy Together"<br>
25 - ENGELBERT HUMPERDINCK - "A Man Without Love"<br>
26 - ELVIS PRESLEY - "Wooden Heart"<br>
27 - THE SOULFUL DYNAMICS - "Pata Pata"<br>
28 - JOHN ROWLES - "If I Only Had Time"<br>
29 - THE TREMELOES - "Silence Is Golden"<br>
30 - MANFRED MANN - "My Name Is Jack"<br>
31 - TOM JONES - "Green Green Grass of Home"<br>
32 - THE BEACH BOYS - "Dp It Again"<br>
33 - JOHN LENNON &amp; YOKO ONO &amp; PLASTIC ONO BAND - "Give Peace a Chance"<br>
34 - FRANK SINATRA - "Strangers in the Night"<br>
35 - BEE GEES - "I've Gotta Get A Message To You"<br>
36 - ESTHER &amp; ABI OFARIM - "Morning Of My Life"<br>
37 - CHRIS ANDREWS - "Pretty Belinda"<br>
38 - EDWIN HAWKINS SINGERS - "Oh Happy Day"<br>
39 - GENE PITNEY - "Something's Gotten Hold Of My Heart"<br>
40 - BARRY MCGUIRE - "Eve Of Destruction"<br>
41 - MARY HOPKIN - "Goodbye"<br>
42 - PERCY SLEDGE - "When a Man Loves a Woman"<br>
<br>
Info:<br>
Source:<br>
<img src="https://imageup.ru/img253/4556622/swr-hd.png" class="bbCodeImage LbImage" alt="[​IMG]" data-url="https://imageup.ru/img253/4556622/swr-hd.png" style=""><br>
Lineage: Vu+Solo2 DVB-S2 satellite receiver -&gt; HDD -&gt; Avidemux -&gt; .ts file format<br>
Genre: Pop | Rock'n'Roll<br>
Quality: HDTV | 720p<br>
Format: TS | 11.8Mbps<br>
Length: 02:00:00 | 11.2Gb<br>
Video: H.264 | 1280x720 | 16:9 | 50.000fps<br>
Audio 1: AC3 | 448kbps | 48kHz | 2 channels: L R<br>
Audio 2: MP2 | 256kbps | 48kHz | 2 channels: L R<br>
Language: English<br>
<br>
Capped by me<br>
<br>
Download:<br>
Rapidgator.net, Uploadgig.com, Ddownload.com<br>
<div class="bbCodeBlock bbCodeVfcHH HiddenContent">
<div class="attribution type">Hidden Content:</div>
<blockquote>You must either reply or click 'Like' to see the hidden information contained here.</blockquote>
</div></div>
<div class="messageTextEndMarker">&nbsp;</div>
</blockquote>
</article>]]></description>
                <author><![CDATA[notepaga]]></author>
                </item>

                
                <item>
                <title><![CDATA[【HD Live Performances】HDTV - Olivia Rodrigo - Live @ Today HDTV MPEG2 1080i DD5.1-ilya2129]]></title>
                <link><![CDATA[https://sharemania.us/threads/olivia-rodrigo-live-today-hdtv-mpeg2-1080i-dd5-1-ilya2129.231880/]]></link>
                <description><![CDATA[<article>
<blockquote class="messageText SelectQuoteContainer ugc baseHtml">
<span data-s9e-mediaembed="spotify" style="display:inline-block;width:100%;max-width:320px"><span style="display:block;overflow:hidden;position:relative;padding-bottom:125%;padding-bottom:calc(100% + 80px)"><iframe allow="encrypted-media" allowfullscreen="" loading="lazy" scrolling="no" src="https://open.spotify.com/embed/album/2F9CGL7sZSG4jnNYqLQzk5" style="border:0;height:100%;left:0;position:absolute;width:100%"></iframe></span></span><br>
<br>
<span data-s9e-mediaembed="spotify" style="display:inline-block;width:100%;max-width:320px"><span style="display:block;overflow:hidden;position:relative;padding-bottom:125%;padding-bottom:calc(100% + 80px)"><iframe allow="encrypted-media" allowfullscreen="" loading="lazy" scrolling="no" src="https://open.spotify.com/embed/track/4vfIrh3XlvfCLbBQgM7Mdh" style="border:0;height:100%;left:0;position:absolute;width:100%"></iframe></span></span>
<div class="messageTextEndMarker">&nbsp;</div>
</blockquote>
</article>]]></description>
                <author><![CDATA[ilya2129]]></author>
                </item>

                </channel></rss>